IDResults
version=1
nRows=19
nColumns=18
inDegrees=yes
endheader
time	ground_thorax_rot_x	ground_thorax_rot_y	ground_thorax_rot_z	ground_thorax_tx	ground_thorax_ty	ground_thorax_tz	clav_prot	clav_elev	scapula_abduction	scapula_elevation	scapula_upward_rot	scapula_winging	plane_elv	shoulder_elv	axial_rot	elbow_flexion	pro_sup
      1.12000000	      9.52992779	      1.27646417	    -19.05808248	     -0.04809590	     -0.00195110	      0.02202142	    -21.14786910	    -10.46492291	     -8.31300228	    -12.40730411	     31.03745702	     13.75453110	     11.00000000	     25.34738531	     -2.70026334	      1.63797796	      5.15400000
      1.14000000	      9.52992779	      1.49754456	    -18.53365135	     -0.05031611	     -0.00000213	      0.02090809	    -20.71879080	    -10.45162739	     -7.26641172	    -12.43785634	     31.36856004	     13.61688482	     11.00000000	     26.51829231	     -2.54241321	      2.14609101	      5.15400000
      1.16000000	      9.52992779	      2.02478708	    -18.01299034	     -0.05262655	      0.00204980	      0.01962857	    -20.63374240	    -10.50073276	     -6.70916102	    -12.54921631	     31.82800519	     13.53759656	     11.00000000	     27.50308835	     -2.70674278	      2.84513440	      5.15400000
      1.18000000	      9.52992779	      2.36217181	    -17.50977570	     -0.05493885	      0.00390074	      0.01858690	    -20.43285096	    -10.36764376	     -5.87418788	    -12.55262832	     32.42929648	     13.32321140	     11.00000000	     28.46885216	     -3.80993212	      3.71348113	      5.15400000
      1.20000000	      9.52992779	      2.90483499	    -17.01958187	     -0.05736981	      0.00575325	      0.01743672	    -20.41563322	    -10.24272619	     -5.38888515	    -12.56307859	     33.00073714	     13.15009097	     11.00000000	     29.45358399	     -5.82739484	      4.85642947	      5.15400000
      1.22000000	      9.52992779	      3.59200640	    -16.43156994	     -0.06004869	      0.00801390	      0.01615821	    -20.48580524	    -10.23010017	     -5.02177055	    -12.65395795	     33.57657816	     13.04725023	     11.00000000	     30.39768203	     -5.95812919	      5.62578290	      5.15400000
      1.24000000	      9.52992779	      4.27885761	    -15.87369488	     -0.06288766	      0.01019609	      0.01482509	    -20.52509193	    -10.15083333	     -4.59879138	    -12.69901911	     34.17218758	     12.90435250	     11.00000000	     31.42782135	     -6.22995273	      6.42563198	      5.15400000
      1.26000000	      9.52992779	      4.56859551	    -15.47616114	     -0.06535015	      0.01160085	      0.01407147	    -20.40192753	     -9.69487611	     -3.77597951	    -12.51550783	     35.01124694	     12.50752924	     11.00000000	     32.32744792	    -10.29722284	      8.01656385	      5.15400000
      1.28000000	      9.52992779	      5.30549716	    -14.86881829	     -0.06840071	      0.01394061	      0.01282424	    -20.51459484	     -9.61507969	     -3.42622938	    -12.56860238	     35.66600387	     12.36966831	     11.00000000	     33.34251573	    -10.42966497	      8.75849599	      5.15400000
      1.30000000	      9.52992779	      5.81700604	    -14.42137207	     -0.07124316	      0.01562356	      0.01191735	    -20.54416964	     -9.24156178	     -2.81775286	    -12.44765285	     36.53449753	     12.04045128	     11.00000000	     34.21682285	    -13.25398599	     10.06029423	      5.15400000
      1.32000000	      9.52992779	      6.52401370	    -13.86027487	     -0.07442707	      0.01767609	      0.01084491	    -20.67570423	     -8.98037966	     -2.41669765	    -12.39434166	     37.33385588	     11.79786761	     11.00000000	     35.14065965	    -14.59176513	     11.02154540	      5.15400000
      1.34000000	      9.52992779	      7.26339452	    -13.27544274	     -0.07782221	      0.01990354	      0.00971770	    -20.80114757	     -8.81785542	     -1.99428242	    -12.40143220	     38.10906362	     11.60867479	     11.00000000	     36.20642395	    -14.70872907	     11.64750560	      5.15400000
      1.36000000	      9.52992779	      7.81459338	    -12.80985312	     -0.08100853	      0.02157377	      0.00888072	    -20.88652355	     -8.38040176	     -1.36314066	    -12.24934785	     39.11543526	     11.24763980	     11.00000000	     37.02879119	    -16.99890130	     12.71930455	      5.15400000
      1.38000000	      9.52992779	      8.55647305	    -12.23841982	     -0.08459404	      0.02371088	      0.00785552	    -21.02846891	     -8.17959985	     -0.92835434	    -12.23081435	     39.93802151	     11.04277590	     11.00000000	     38.13231760	    -17.12872234	     13.26383090	      5.15400000
      1.40000000	      9.52992779	      9.05109572	    -11.79032481	     -0.08789952	      0.02522185	      0.00712866	    -21.10223347	     -7.68602072	     -0.20338669	    -12.04252041	     41.02591491	     10.65404796	     11.00000000	     38.95046384	    -19.19960825	     14.19468518	      5.15400000
      1.42000000	      9.52992779	      9.77023725	    -11.23295886	     -0.09159915	      0.02717376	      0.00620813	    -21.25330670	     -7.43065221	      0.25211290	    -11.98542218	     41.89335485	     10.42726042	     11.00000000	     40.06648067	    -19.36335484	     14.66845782	      5.15400000
      1.44000000	      9.52992779	     10.16407115	    -10.80903839	     -0.09494774	      0.02849556	      0.00560289	    -21.29171399	     -6.88614629	      1.10160642	    -11.75905565	     43.04443373	     10.01778996	     11.00000000	     40.90337122	    -21.13523104	     15.43180227	      5.15400000
      1.46000000	      9.52992779	     10.84938527	    -10.25776824	     -0.09864917	      0.03029097	      0.00478557	    -21.44974707	     -6.58187516	      1.55257158	    -11.66196646	     43.92185065	      9.78023377	     11.00000000	     42.02644705	    -21.30916677	     15.85499844	      5.15400000
      1.48000000	      9.52992779	     11.48281645	     -9.75206733	     -0.10233875	      0.03178311	      0.00400482	    -21.59129898	     -6.16608150	      2.07099568	    -11.49292380	     44.86543773	      9.48763282	     11.00000000	     43.11479152	    -21.61370933	     16.28602347	      5.15400000
